<?xml version="1.0" encoding="utf-8"?>
<!-- Generator: Adobe Illustrator 21.0.0, SVG Export Plug-In . SVG Version: 6.00 Build 0)  -->
<svg version="1.1" id="Слой_1" xmlns="http://www.w3.org/2000/svg" xmlns:xlink="http://www.w3.org/1999/xlink" x="0px" y="0px"
	 viewBox="0 0 31.9 32" style="enable-background:new 0 0 31.9 32;" xml:space="preserve">
<style type="text/css">
	.st0{fill:#DDDDDD;}
	.st1{fill:#F006F7;}
	.st2{fill:#727272;}
	.st3{fill:#333333;}
</style>
<rect class="st0" width="31.9" height="31.9"/>
<g>
	<path class="st1" d="M7.8,8.4H2c-0.3,0-0.5-0.2-0.5-0.5V2.1c0-0.3,0.2-0.5,0.5-0.5h5.8c0.3,0,0.5,0.2,0.5,0.5v5.8
		C8.3,8.2,8.1,8.4,7.8,8.4z"/>
	<path class="st2" d="M7.8,15.7H2c-0.3,0-0.5-0.2-0.5-0.5V9.4c0-0.3,0.2-0.5,0.5-0.5h5.8c0.3,0,0.5,0.2,0.5,0.5v5.8
		C8.3,15.5,8.1,15.7,7.8,15.7z"/>
	<path class="st3" d="M7.8,23.1H2c-0.3,0-0.5-0.2-0.5-0.5v-5.8c0-0.3,0.2-0.5,0.5-0.5h5.8c0.3,0,0.5,0.2,0.5,0.5v5.8
		C8.3,22.8,8.1,23.1,7.8,23.1z"/>
	<path class="st3" d="M7.8,30.4H2c-0.3,0-0.5-0.2-0.5-0.5v-5.8c0-0.3,0.2-0.5,0.5-0.5h5.8c0.3,0,0.5,0.2,0.5,0.5v5.8
		C8.3,30.2,8.1,30.4,7.8,30.4z"/>
</g>
<g>
	<path class="st2" d="M15.1,8.4H9.3C9,8.4,8.8,8.2,8.8,7.9V2.1c0-0.3,0.2-0.5,0.5-0.5h5.8c0.3,0,0.5,0.2,0.5,0.5v5.8
		C15.6,8.2,15.4,8.4,15.1,8.4z"/>
	<path class="st1" d="M15.1,15.7H9.3c-0.3,0-0.5-0.2-0.5-0.5V9.4c0-0.3,0.2-0.5,0.5-0.5h5.8c0.3,0,0.5,0.2,0.5,0.5v5.8
		C15.6,15.5,15.4,15.7,15.1,15.7z"/>
	<path class="st2" d="M15.1,23.1H9.3c-0.3,0-0.5-0.2-0.5-0.5v-5.8c0-0.3,0.2-0.5,0.5-0.5h5.8c0.3,0,0.5,0.2,0.5,0.5v5.8
		C15.6,22.8,15.4,23.1,15.1,23.1z"/>
	<path class="st1" d="M15.1,30.4H9.3c-0.3,0-0.5-0.2-0.5-0.5v-5.8c0-0.3,0.2-0.5,0.5-0.5h5.8c0.3,0,0.5,0.2,0.5,0.5v5.8
		C15.6,30.2,15.4,30.4,15.1,30.4z"/>
</g>
<g>
	<path class="st3" d="M22.3,8.4h-5.8c-0.3,0-0.5-0.2-0.5-0.5V2.1c0-0.3,0.2-0.5,0.5-0.5h5.8c0.3,0,0.5,0.2,0.5,0.5v5.8
		C22.8,8.2,22.6,8.4,22.3,8.4z"/>
	<path class="st1" d="M22.3,15.7h-5.8c-0.3,0-0.5-0.2-0.5-0.5V9.4c0-0.3,0.2-0.5,0.5-0.5h5.8c0.3,0,0.5,0.2,0.5,0.5v5.8
		C22.8,15.5,22.6,15.7,22.3,15.7z"/>
	<path class="st3" d="M22.3,23.1h-5.8c-0.3,0-0.5-0.2-0.5-0.5v-5.8c0-0.3,0.2-0.5,0.5-0.5h5.8c0.3,0,0.5,0.2,0.5,0.5v5.8
		C22.8,22.8,22.6,23.1,22.3,23.1z"/>
	<path class="st1" d="M22.3,30.4h-5.8c-0.3,0-0.5-0.2-0.5-0.5v-5.8c0-0.3,0.2-0.5,0.5-0.5h5.8c0.3,0,0.5,0.2,0.5,0.5v5.8
		C22.8,30.2,22.6,30.4,22.3,30.4z"/>
</g>
<g>
	<path class="st3" d="M29.6,8.4h-5.8c-0.3,0-0.5-0.2-0.5-0.5V2.1c0-0.3,0.2-0.5,0.5-0.5h5.8c0.3,0,0.5,0.2,0.5,0.5v5.8
		C30.1,8.2,29.9,8.4,29.6,8.4z"/>
	<path class="st2" d="M29.6,15.7h-5.8c-0.3,0-0.5-0.2-0.5-0.5V9.4c0-0.3,0.2-0.5,0.5-0.5h5.8c0.3,0,0.5,0.2,0.5,0.5v5.8
		C30.1,15.5,29.9,15.7,29.6,15.7z"/>
	<path class="st1" d="M29.6,23.1h-5.8c-0.3,0-0.5-0.2-0.5-0.5v-5.8c0-0.3,0.2-0.5,0.5-0.5h5.8c0.3,0,0.5,0.2,0.5,0.5v5.8
		C30.1,22.8,29.9,23.1,29.6,23.1z"/>
	<path class="st3" d="M29.6,30.4h-5.8c-0.3,0-0.5-0.2-0.5-0.5v-5.8c0-0.3,0.2-0.5,0.5-0.5h5.8c0.3,0,0.5,0.2,0.5,0.5v5.8
		C30.1,30.2,29.9,30.4,29.6,30.4z"/>
</g>
</svg>
