<svg width="210" height="63" viewBox="0 0 210 63" fill="none" xmlns="http://www.w3.org/2000/svg">
<rect width="21" height="21" fill="#565656"/>
<rect x="21" y="21" width="21" height="21" fill="#FA00FF"/>
<rect x="42" width="21" height="21" fill="#565656"/>
<rect x="63" width="21" height="21" fill="#565656"/>
<rect x="63" y="21" width="21" height="21" fill="#FA00FF"/>
<rect x="84" y="21" width="21" height="21" fill="#D9D9D9"/>
<rect x="84" y="42" width="21" height="21" fill="#D9D9D9"/>
<rect x="126" y="42" width="21" height="21" fill="#D9D9D9"/>
<rect x="168" y="42" width="21" height="21" fill="#D9D9D9"/>
<rect x="189" y="42" width="21" height="21" fill="#565656"/>
<rect x="126" y="21" width="21" height="21" fill="#D9D9D9"/>
<rect x="147" y="21" width="21" height="21" fill="#D9D9D9"/>
<rect x="147" width="21" height="21" fill="#565656"/>
<rect x="126" width="21" height="21" fill="#D9D9D9"/>
<rect x="105" width="21" height="21" fill="#FA00FF"/>
<rect x="189" width="21" height="21" fill="#FA00FF"/>
<rect y="42" width="21" height="21" fill="#565656"/>
<rect x="42" y="42" width="21" height="21" fill="#FA00FF"/>
<rect x="63" y="42" width="21" height="21" fill="#565656"/>
<rect x="105" y="42" width="21" height="21" fill="#565656"/>
<rect x="147" y="42" width="21" height="21" fill="#FA00FF"/>
<rect x="105" y="21" width="21" height="21" fill="#565656"/>
<rect x="168" y="21" width="21" height="21" fill="#565656"/>
<rect x="168" width="21" height="21" fill="#D9D9D9"/>
<rect x="189" y="21" width="21" height="21" fill="#D9D9D9"/>
<rect x="84" width="21" height="21" fill="#FA00FF"/>
<rect x="42" y="21" width="21" height="21" fill="#D9D9D9"/>
<rect x="21" y="42" width="21" height="21" fill="#FA00FF"/>
<rect x="21" width="21" height="21" fill="#D9D9D9"/>
<rect y="21" width="21" height="21" fill="#D9D9D9"/>
</svg>
